<?xml version="1.0" encoding="utf-8"?>
<svg version="1.1" id="Ebene_26" xmlns="http://www.w3.org/2000/svg" xmlns:xlink="http://www.w3.org/1999/xlink" x="0px" y="0px"
	 viewBox="0 0 512 512" style="enable-background:new 0 0 512 512;" xml:space="preserve">
<style type="text/css">
	.st0{fill:#D8B78B;}
	.st1{fill:#7F512E;}
	.st2{fill:#FFFFFF;}
</style>
<g>
	<g>
		<path class="st0" d="M427.4,249.3c1.4,9.6,3.3,42.2,14.7,47.6c36.9,17.2,49.9-63.6,54-83.1c4.1-19.4-1.6-64.9-31.9-54
			c-1,0.4-1.7,0.8-2.2,1.3c-13.2-5.5-28.4-4.1-33.3,11.6C421.6,195.9,424,225.8,427.4,249.3z"/>
	</g>
	<g>
		<path class="st0" d="M82.9,172.7c-4.8-15.7-20-17.1-33.2-11.6c-0.5-0.5-1.2-0.9-2.2-1.3c-30.3-11-36,34.6-31.9,54
			c4.1,19.5,17.1,100.3,54,83.1C81,291.6,83,259,84.3,249.3C87.6,225.8,90,195.9,82.9,172.7z"/>
	</g>
	<g>
		<path class="st1" d="M461.3,206.9c0-106.4-91.8-192.7-205-192.7s-205,78.2-205,192.7c0,213.8,91.8,192.7,205,192.7
			C369.5,399.5,461.3,420.7,461.3,206.9z"/>
		<path d="M310.3,403.6L310.3,403.6c-8.4,0-17.1-0.1-26-0.3c-18.4-0.3-37.8-0.3-56.1,0c-8.8,0.1-17.5,0.3-25.9,0.3
			c-87.6,0-154.5-14.5-154.5-196.7C47.8,95,137.4,10.7,256.3,10.7c115,0,208.6,88,208.6,196.1c0,84.3-14,137-43.9,166
			C394.6,398.4,359.1,403.6,310.3,403.6z M256.3,396c9.6,0,19,0.1,28.2,0.3c8.8,0.1,17.4,0.3,25.8,0.3c46.9,0,80.9-4.8,105.6-28.7
			c28.5-27.6,41.8-78.8,41.8-161.1c0-104.3-90.3-189.2-201.4-189.2C141.5,17.7,55,99,55,206.9c0,176.1,61,189.7,147.3,189.7
			c8.4,0,17-0.1,25.8-0.3C237.4,396.2,246.8,396,256.3,396z"/>
	</g>
	<g>
		<path class="st0" d="M87.5,273.2c0,98.9,75.9,179.1,169.5,179.1s169.5-80.2,169.5-179.1s-0.9-223.9-170.3-185
			C64.5,49.3,87.5,174.3,87.5,273.2z"/>
		<path d="M257,456.5c-95.9,0-173.8-82.2-173.8-183.2c0-9.5-0.2-19.2-0.4-29c-1.2-53.6-2.4-109,30.1-141.1
			c27.3-27,73.8-33.2,143.4-19.2c21-4.8,40.3-7.2,57.3-7.2C431,76.8,431,190.4,431,273.3C430.9,374.3,352.9,456.5,257,456.5z
			 M192.6,85.1c-33.3,0-57.3,7.8-73.6,23.9c-29.9,29.6-28.7,83.2-27.6,135c0.2,9.8,0.4,19.6,0.4,29.2c0,96.4,74.1,174.9,165.2,174.9
			s165.2-78.5,165.2-174.9c0-83.8,0-188.1-108.7-188.1c-16.6,0-35.5,2.4-56.2,7.2l-0.9,0.2l-0.9-0.2
			C231.9,87.5,210.7,85.1,192.6,85.1z"/>
	</g>
	<g>
		<path class="st2" d="M222,219.9c0-32.8-21.5-59.4-48-59.4s-48,26.6-48,59.4s21.5,59.4,48,59.4S222,252.7,222,219.9z"/>
		<path d="M174.1,282.8c-28.4,0-51.6-28.2-51.6-62.9s23.1-62.9,51.6-62.9c28.4,0,51.6,28.2,51.6,62.9S202.5,282.8,174.1,282.8z
			 M174.1,163.9c-24.5,0-44.4,25.1-44.4,56s19.9,56,44.4,56s44.4-25.1,44.4-56C218.4,189,198.5,163.9,174.1,163.9z"/>
	</g>
	<g>
		<ellipse class="st2" cx="339.4" cy="219.9" rx="48" ry="59.4"/>
		<path d="M339.4,282.8c-28.4,0-51.6-28.2-51.6-62.9s23.1-62.9,51.6-62.9c28.4,0,51.6,28.2,51.6,62.9S367.8,282.8,339.4,282.8z
			 M339.4,163.9c-24.5,0-44.4,25.1-44.4,56s19.9,56,44.4,56s44.4-25.1,44.4-56S363.9,163.9,339.4,163.9z"/>
	</g>
	<g>
		<path d="M157.9,240.5c0,16.2,8.7,29.3,19.4,29.3s19.3-13.1,19.3-29.3s-8.7-29.3-19.3-29.3C166.5,211.2,157.9,224.3,157.9,240.5z"
			/>
	</g>
	<g>
		<ellipse cx="335.4" cy="240.5" rx="19.4" ry="29.3"/>
	</g>
	<g>
		<path class="st0" d="M466.4,375.1c0,67.4-94,122.1-210.1,122.1c-116,0-210.1-54.7-210.1-122.1S140.2,253,256.3,253
			C372.3,253,466.4,307.7,466.4,375.1z"/>
		<path d="M256.3,500.7c-117.8,0-213.7-56.3-213.7-125.6s95.8-125.6,213.7-125.6c117.8,0,213.7,56.3,213.7,125.6
			S374.1,500.7,256.3,500.7z M256.3,256.5c-113.8,0-206.5,53.2-206.5,118.6s92.6,118.6,206.5,118.6s206.5-53.2,206.5-118.6
			S370.2,256.5,256.3,256.5z"/>
	</g>
	<g>
		<path d="M57.9,293.2c0,0-3.4,0.8-8.1-2.1c-7.4-4.4-17.6-16.8-24.4-51.5c-4-14.5-6.1-26.2-6.9-35.7c-0.1-1.9-0.2-3.7-0.3-5.4
			c-0.4-17.3,4.1-26,9.1-30.4c7.9-7,19.6-5.4,25-4.1c1.8,0.4,2.9,0.8,2.9,0.8l2.5-6.5c-0.9-0.3-21.4-7.6-35.2,4.6
			c-12.1,10.6-14.6,32.2-7.7,64.1c1,4.5,2.2,9.3,3.6,14.3c5.9,29.6,15.2,48.4,27.7,55.8c4.4,2.6,8.2,3.2,10.7,3.2
			c1.8,0,2.9-0.3,3.2-0.4L57.9,293.2z"/>
	</g>
	<g>
		<path d="M489.5,162.8c-13.9-12.2-34.4-4.9-35.2-4.6l2.5,6.5c0.2-0.1,17.3-6.1,27.9,3.3c0.5,0.4,1,0.9,1.5,1.5
			c6.8,7.4,11.8,24.2,2.6,61.9c-0.6,2.6-1.4,5.4-2.1,8.2l0,0c0,0.1,0,0.2-0.1,0.3c-6.7,34-16.7,46.5-24,51c-4.9,3.1-8.4,2.3-8.5,2.3
			l-2,6.7c0.3,0.1,1.4,0.4,3.2,0.4c2.5,0,6.3-0.6,10.7-3.2c12.5-7.4,21.8-26.2,27.6-55.6C504.7,201.4,503.3,175,489.5,162.8z"/>
	</g>
	<g>
		<path d="M134,157.9c-0.9,3.8,4.5-2.1,7.6-3.6c5.1-2.6,11.7-4.1,18.1-5.2c16.4-2.9,34.6-0.9,51.1,3.1c3.4,0.8,9.8-19.5,2.3-21.3
			c-36.5-8.7-80.5-4.1-86.1,20.7c-0.8,3.5-2.4,9.9,1.3,13.4C131.1,167.4,133.9,158.3,134,157.9L134,157.9z"/>
	</g>
	<g>
		<path d="M381,157.9c0.9,3.8-4.5-2.1-7.6-3.6c-5.1-2.6-11.7-4.1-18.1-5.2c-16.4-2.9-34.6-0.9-51.1,3.1c-3.4,0.8-9.8-19.5-2.3-21.3
			c36.5-8.7,80.5-4.1,86.1,20.7c0.8,3.5,2.4,9.9-1.3,13.4C383.8,167.4,381.1,158.3,381,157.9L381,157.9z"/>
	</g>
	<g>
		<g>
			<path d="M346.6,404c-2.8,4.7-9.5,6.8-14.8,7.3c-53.6,5-114.1-15.4-164.8-29.3c-10.6-2.9-23.9-1.1-34.5,1.1
				c-2.7,0.6-18.6,4.9-8.4,7.7c68.3,18.8,140.9,37,212.6,30.3c14.7-1.4,49.2-3.4,58.3-18.4C397.4,398.8,352.4,394.3,346.6,404
				L346.6,404z"/>
		</g>
	</g>
</g>
</svg>
